<svg width="16" height="16" viewBox="0 0 16 16" fill="none" xmlns="http://www.w3.org/2000/svg">
<path d="M16 7.86599L12.7872 4.48436L9.57431 7.86599L12.7872 11.2476L16 7.86599Z" fill="#FCA6A6"/>
<path d="M9.60747 7.86861L6.39462 4.48698L3.18178 7.86861L6.39462 11.2502L9.60747 7.86861Z" fill="#FA7070"/>
<path d="M6.39149 4.55639C6.39149 4.55639 9.56939 1.09878 12.783 4.49062L9.56939 7.87306L6.39149 4.55639Z" fill="#FF8D8D"/>
<path d="M12.7919 11.2555C9.57829 14.6379 6.40038 11.1897 6.40038 11.1897L9.57829 7.87304L12.7919 11.2555Z" fill="#FF8D8D"/>
<path d="M0 4.55639C0 4.55639 3.17791 1.09878 6.39152 4.49062L3.17791 7.87306L0 4.55639Z" fill="#FF5D5D"/>
<path d="M6.39152 11.2555C3.17791 14.6379 0 11.1897 0 11.1897L3.17791 7.87306L6.39152 11.2555Z" fill="#FF5D5D"/>
</svg>
