<svg width="219" height="50" viewBox="0 0 219 50" fill="none" xmlns="http://www.w3.org/2000/svg">
<path d="M89.341 41.1003V18.5042H93.3877L93.5546 22.5804H93.8884C94.2499 21.3989 94.7505 20.4832 95.3902 19.8334C96.0299 19.1836 96.8087 18.7405 97.7265 18.5042C98.6443 18.2679 99.6873 18.1498 100.855 18.1498V22.7576C98.9642 22.7576 97.504 23.053 96.4749 23.6437C95.4737 24.2345 94.7645 25.1797 94.3473 26.4793C93.9579 27.7494 93.7632 29.4183 93.7632 31.4859V41.1003H89.341Z" fill="black"/>
<path d="M114.039 41.4547C112.231 41.4547 110.729 41.3366 109.533 41.1003C108.337 40.8344 107.377 40.4209 106.654 39.8597C105.931 39.2689 105.389 38.5305 105.027 37.6444C104.666 36.7287 104.429 35.6359 104.318 34.3658C104.207 33.0661 104.151 31.5597 104.151 29.8465C104.151 27.8085 104.249 26.051 104.443 24.5741C104.638 23.0973 105.041 21.8862 105.653 20.941C106.265 19.9663 107.211 19.2574 108.49 18.8144C109.797 18.3713 111.535 18.1498 113.705 18.1498C115.401 18.1498 116.792 18.2975 117.877 18.5928C118.961 18.8587 119.81 19.287 120.422 19.8777C121.061 20.4685 121.52 21.2364 121.798 22.1816C122.104 23.0973 122.299 24.2049 122.382 25.5046C122.466 26.7747 122.507 28.222 122.507 29.8465V31.3529H108.615C108.615 32.6821 108.671 33.7602 108.782 34.5873C108.893 35.3848 109.144 36.0051 109.533 36.4481C109.95 36.8617 110.59 37.157 111.452 37.3343C112.342 37.4819 113.538 37.5558 115.04 37.5558C115.68 37.5558 116.375 37.541 117.126 37.5115C117.905 37.4819 118.697 37.4229 119.504 37.3343C120.31 37.2456 121.033 37.1718 121.673 37.1127V40.7901C121.061 40.9083 120.324 41.0116 119.462 41.1003C118.6 41.2184 117.696 41.307 116.75 41.3661C115.805 41.4252 114.901 41.4547 114.039 41.4547ZM118.252 28.8275V27.9857C118.252 26.6565 118.169 25.6079 118.002 24.84C117.863 24.0425 117.612 23.4517 117.251 23.0677C116.917 22.6542 116.444 22.3884 115.832 22.2702C115.248 22.1225 114.511 22.0487 113.621 22.0487C112.509 22.0487 111.619 22.1373 110.951 22.3145C110.312 22.4622 109.825 22.7576 109.491 23.2007C109.157 23.6437 108.921 24.264 108.782 25.0615C108.671 25.8295 108.615 26.8485 108.615 28.1186H119.003L118.252 28.8275Z" fill="black"/>
<path d="M135.007 41.4547C133.589 41.4547 132.393 41.2775 131.419 40.923C130.446 40.5391 129.667 39.9188 129.083 39.0622C128.499 38.1761 128.068 36.9798 127.79 35.4734C127.54 33.967 127.414 32.0914 127.414 29.8465C127.414 27.5722 127.54 25.6818 127.79 24.1754C128.068 22.669 128.485 21.4875 129.041 20.6309C129.625 19.7448 130.39 19.1097 131.336 18.7258C132.282 18.3418 133.45 18.1498 134.84 18.1498C135.869 18.1498 136.801 18.2384 137.635 18.4156C138.47 18.5928 139.207 18.903 139.847 19.346C140.514 19.7596 141.043 20.3651 141.432 21.1626H141.724V8.18093H146.146V41.1003H142.058L141.891 38.1318H141.64C141.223 39.077 140.653 39.7858 139.93 40.2584C139.235 40.731 138.456 41.0412 137.594 41.1889C136.732 41.3661 135.869 41.4547 135.007 41.4547ZM136.801 37.2899C138.025 37.2899 138.97 37.1275 139.638 36.8026C140.333 36.4481 140.82 35.9017 141.098 35.1633C141.376 34.4839 141.543 33.7012 141.599 32.815C141.682 31.9289 141.724 30.8951 141.724 29.7136C141.724 28.5912 141.682 27.6165 141.599 26.7894C141.543 25.9329 141.39 25.2092 141.14 24.6184C140.834 23.8209 140.333 23.245 139.638 22.8905C138.97 22.5361 138.025 22.3588 136.801 22.3588C135.689 22.3588 134.799 22.4475 134.131 22.6247C133.491 22.7724 133.005 23.0973 132.671 23.5994C132.365 24.072 132.156 24.8104 132.045 25.8147C131.934 26.7894 131.878 28.1186 131.878 29.8022C131.878 31.4859 131.934 32.8298 132.045 33.8341C132.156 34.8088 132.379 35.5472 132.713 36.0494C133.046 36.5515 133.533 36.8912 134.173 37.0684C134.84 37.2161 135.716 37.2899 136.801 37.2899Z" fill="black"/>
<path d="M154.653 41.1003V22.4474H150.44V18.5042H154.653V15.7573C154.653 14.3099 154.751 13.1284 154.945 12.2128C155.14 11.2676 155.46 10.5291 155.905 9.99748C156.378 9.46581 156.989 9.08182 157.74 8.84552C158.519 8.57969 159.465 8.41723 160.577 8.35816C161.69 8.26954 162.997 8.22524 164.499 8.22524V11.7697C163.331 11.7697 162.385 11.814 161.662 11.9026C160.967 11.9617 160.424 12.0946 160.035 12.3014C159.673 12.5081 159.423 12.8331 159.284 13.2761C159.173 13.6896 159.117 14.2361 159.117 14.9154V18.5042H164.499V22.4474H159.117V41.1003H154.653ZM168.921 41.1003V18.5042H173.343V41.1003H168.921ZM168.796 12.8331V8.18093H173.427V12.8331H168.796Z" fill="black"/>
<path d="M187.375 41.4547C186.541 41.4547 185.637 41.4252 184.663 41.3661C183.718 41.307 182.786 41.2332 181.868 41.1446C180.95 41.056 180.13 40.9526 179.407 40.8344V37.1127C179.88 37.1423 180.408 37.1866 180.992 37.2456C181.604 37.3047 182.244 37.349 182.911 37.3786C183.579 37.4081 184.232 37.4376 184.872 37.4672C185.512 37.4967 186.137 37.5115 186.749 37.5115C188.084 37.5115 189.044 37.4229 189.628 37.2456C190.24 37.0684 190.629 36.773 190.796 36.3595C190.991 35.9165 191.088 35.3553 191.088 34.6759C191.088 33.9079 191.019 33.3467 190.88 32.9923C190.768 32.6378 190.546 32.4015 190.212 32.2834C189.878 32.1652 189.364 32.0618 188.668 31.9732L183.495 31.3086C182.16 31.161 181.145 30.836 180.45 30.3339C179.782 29.8022 179.323 29.0933 179.073 28.2072C178.851 27.2916 178.739 26.1839 178.739 24.8843C178.739 23.3779 178.934 22.1816 179.323 21.2955C179.741 20.3798 180.311 19.7005 181.034 19.2574C181.785 18.8144 182.689 18.519 183.746 18.3713C184.802 18.2236 185.957 18.1498 187.208 18.1498C187.987 18.1498 188.794 18.1793 189.628 18.2384C190.49 18.2975 191.311 18.3861 192.089 18.5042C192.896 18.5928 193.591 18.6962 194.175 18.8144V22.5361C193.508 22.4474 192.785 22.3736 192.006 22.3145C191.227 22.2555 190.448 22.2112 189.67 22.1816C188.919 22.1225 188.196 22.093 187.5 22.093C186.471 22.093 185.623 22.1521 184.955 22.2702C184.288 22.3588 183.787 22.5951 183.454 22.9791C183.148 23.3336 182.995 23.9539 182.995 24.84C182.995 25.5193 183.036 26.0362 183.12 26.3907C183.231 26.7156 183.44 26.9519 183.746 27.0996C184.079 27.2177 184.58 27.3211 185.247 27.4097L190.838 28.1186C191.895 28.2368 192.743 28.4731 193.383 28.8275C194.05 29.1524 194.537 29.7579 194.843 30.6441C195.177 31.5006 195.343 32.815 195.343 34.5873C195.343 36.0641 195.163 37.2604 194.801 38.1761C194.467 39.0622 193.953 39.7563 193.257 40.2584C192.562 40.731 191.714 41.0412 190.713 41.1889C189.739 41.3661 188.627 41.4547 187.375 41.4547Z" fill="black"/>
<path d="M200.727 41.1003V8.18093H205.149V21.2955H205.441C205.775 20.6161 206.22 20.0549 206.776 19.6119C207.333 19.1393 208.028 18.7848 208.862 18.5485C209.725 18.3122 210.767 18.1941 211.991 18.1941C213.493 18.1941 214.703 18.3713 215.621 18.7258C216.566 19.0802 217.276 19.6266 217.748 20.3651C218.221 21.1035 218.541 22.0192 218.708 23.112C218.903 24.2049 219 25.4898 219 26.9667V41.1003H214.536V28.8275C214.536 27.3506 214.48 26.1839 214.369 25.3273C214.286 24.4412 214.091 23.7914 213.785 23.3779C213.479 22.9348 213.02 22.6542 212.408 22.5361C211.824 22.4179 211.032 22.3588 210.03 22.3588C208.918 22.3588 208.028 22.5065 207.36 22.8019C206.721 23.0973 206.234 23.5403 205.9 24.1311C205.594 24.7218 205.386 25.4603 205.274 26.3464C205.191 27.2325 205.149 28.2663 205.149 29.4478V41.1003H200.727Z" fill="black"/>
<path d="M82.1193 24.9745L65.6295 7.61841L49.1397 24.9745L65.6295 42.3306L82.1193 24.9745Z" fill="#FCA6A6"/>
<path d="M49.3099 24.9879L32.8201 7.63183L16.3303 24.9879L32.8201 42.344L49.3099 24.9879Z" fill="#FA7070"/>
<path d="M32.804 7.98809C32.804 7.98809 49.1145 -9.75792 65.6082 7.65053L49.1145 25.0108L32.804 7.98809Z" fill="#FF8D8D"/>
<path d="M65.6538 42.3709C49.1601 59.7311 32.8496 42.0333 32.8496 42.0333L49.1601 25.0107L65.6538 42.3709Z" fill="#FF8D8D"/>
<path d="M0 7.98809C0 7.98809 16.3105 -9.75792 32.8042 7.65053L16.3105 25.0108L0 7.98809Z" fill="#FF5D5D"/>
<path d="M32.8042 42.3709C16.3105 59.7311 0 42.0333 0 42.0333L16.3105 25.0108L32.8042 42.3709Z" fill="#FF5D5D"/>
</svg>
